<svg xmlns="http://www.w3.org/2000/svg" xmlns:xlink="http://www.w3.org/1999/xlink">
    <defs>
        <symbol id="icon-heart" viewBox="0 0 32 32">
            <path d="M2.133 11.738c0 5.833 4.919 11.598 12.565 16.516 0.425 0.273 0.946 0.546 1.302 0.546s0.877-0.273 1.302-0.546c7.66-4.918 12.565-10.683 12.565-16.516 0-5.041-3.494-8.538-7.975-8.538-2.617 0-4.659 1.188-5.892 2.992-1.206-1.79-3.261-2.992-5.878-2.992-4.494 0-7.988 3.497-7.988 8.538zM4.956 11.724c0-3.442 2.275-5.778 5.33-5.778 2.466 0 3.85 1.489 4.714 2.787 0.384 0.56 0.644 0.738 1 0.738 0.37 0 0.603-0.191 1-0.738 0.932-1.27 2.261-2.787 4.714-2.787 3.069 0 5.344 2.336 5.344 5.778 0 4.809-5.015 10.136-10.797 13.961-0.123 0.082-0.206 0.137-0.26 0.137s-0.137-0.055-0.247-0.137c-5.782-3.825-10.797-9.153-10.797-13.961z"></path>
        </symbol>
        <symbol id="icon-cart" viewBox="0 0 32 32">
            <path d="M11.566 22.355h14.959c0.604 0 1.157-0.475 1.157-1.156 0-0.668-0.553-1.143-1.157-1.143h-14.664c-0.617 0-1.002-0.424-1.092-1.078l-0.193-1.335h16.051c1.966 0 3.007-1.194 3.29-3.146l0.964-6.432c0.026-0.167 0.051-0.385 0.051-0.526 0-0.757-0.527-1.271-1.414-1.271h-20.601l-0.193-1.387c-0.167-1.117-0.617-1.682-2.043-1.682h-4.408c-0.643 0-1.208 0.565-1.208 1.22 0 0.668 0.565 1.232 1.208 1.232h4.022l1.992 13.583c0.283 1.939 1.311 3.12 3.277 3.12zM28.26 8.566l-0.81 5.7c-0.103 0.655-0.45 1.066-1.079 1.066l-16.128 0.013-0.99-6.779h19.007zM12.62 28.8c1.247 0 2.249-1.001 2.249-2.247s-1.002-2.247-2.249-2.247c-1.247 0-2.249 1.001-2.249 2.247s1.002 2.247 2.249 2.247zM24.495 28.8c1.247 0 2.236-1.001 2.236-2.247s-0.99-2.247-2.236-2.247c-1.247 0-2.262 1.001-2.262 2.247s1.015 2.247 2.262 2.247z"></path>
        </symbol>
        <symbol id="icon-trash" viewBox="0 0 32 32">
            <path stroke-linejoin="round" stroke-linecap="round" stroke-miterlimit="4" stroke-width="2.1333" d="M4 8h24"></path>
            <path stroke-linejoin="round" stroke-linecap="round" stroke-miterlimit="4" stroke-width="2.1333" d="M25.333 8v18.667c0 0.707-0.281 1.386-0.781 1.886s-1.178 0.781-1.886 0.781h-13.333c-0.707 0-1.386-0.281-1.886-0.781s-0.781-1.178-0.781-1.886v-18.667M10.667 8v-2.667c0-0.707 0.281-1.386 0.781-1.886s1.178-0.781 1.886-0.781h5.333c0.707 0 1.386 0.281 1.886 0.781s0.781 1.178 0.781 1.886v2.667"></path>
            <path stroke-linejoin="round" stroke-linecap="round" stroke-miterlimit="4" stroke-width="2.1333" d="M13.333 14.667v8"></path>
            <path stroke-linejoin="round" stroke-linecap="round" stroke-miterlimit="4" stroke-width="2.1333" d="M18.667 14.667v8"></path>
        </symbol>
        <symbol id="icon-checkmark" viewBox="0 0 32 32">
            <path d="M27 4l-15 15-7-7-5 5 12 12 20-20z"></path>
        </symbol>
    </defs>
</svg>